<mxfile host="Electron" agent="Mozilla/5.0 (Windows NT 10.0; Win64; x64) AppleWebKit/537.36 (KHTML, like Gecko) draw.io/27.0.9 Chrome/134.0.6998.205 Electron/35.4.0 Safari/537.36" version="27.0.9">
  <diagram name="Page-1" id="eBydyxjRqSs3BJirI7cG">
    <mxGraphModel dx="1103" dy="729" grid="1" gridSize="10" guides="1" tooltips="1" connect="1" arrows="1" fold="1" page="1" pageScale="1" pageWidth="1169" pageHeight="827" math="1" shadow="0">
      <root>
        <mxCell id="0" />
        <mxCell id="1" parent="0" />
        <mxCell id="7GCYxpNkzpC9aqIWQ88N-9" value="" style="rounded=1;whiteSpace=wrap;html=1;rotation=26;gradientColor=default;" parent="1" vertex="1">
          <mxGeometry x="960" y="538" width="150" height="10" as="geometry" />
        </mxCell>
        <mxCell id="7GCYxpNkzpC9aqIWQ88N-1" value="" style="group;strokeWidth=1.9685;rotation=90;" parent="1" vertex="1" connectable="0">
          <mxGeometry x="851" y="440" width="140" height="140" as="geometry" />
        </mxCell>
        <mxCell id="7GCYxpNkzpC9aqIWQ88N-2" value="" style="rounded=0;whiteSpace=wrap;html=1;fillColor=#000000;rotation=90;" parent="7GCYxpNkzpC9aqIWQ88N-1" vertex="1">
          <mxGeometry y="30" width="140" height="60" as="geometry" />
        </mxCell>
        <mxCell id="7GCYxpNkzpC9aqIWQ88N-3" value="&lt;font style=&quot;font-size: 49px;&quot;&gt;M&lt;/font&gt;&lt;div&gt;&lt;sup&gt;&lt;font style=&quot;&quot;&gt;&lt;br&gt;&lt;/font&gt;&lt;/sup&gt;&lt;/div&gt;" style="ellipse;whiteSpace=wrap;html=1;aspect=fixed;strokeWidth=1.9685;rotation=0;" parent="7GCYxpNkzpC9aqIWQ88N-1" vertex="1">
          <mxGeometry x="10" width="120" height="120" as="geometry" />
        </mxCell>
        <mxCell id="7GCYxpNkzpC9aqIWQ88N-4" value="" style="group;rotation=0;" parent="7GCYxpNkzpC9aqIWQ88N-1" vertex="1" connectable="0">
          <mxGeometry x="40" y="80" width="64" height="10" as="geometry" />
        </mxCell>
        <mxCell id="7GCYxpNkzpC9aqIWQ88N-5" value="" style="endArrow=none;html=1;rounded=0;strokeWidth=1.9685;" parent="7GCYxpNkzpC9aqIWQ88N-4" edge="1">
          <mxGeometry width="50" height="50" relative="1" as="geometry">
            <mxPoint as="sourcePoint" />
            <mxPoint x="64" as="targetPoint" />
          </mxGeometry>
        </mxCell>
        <mxCell id="7GCYxpNkzpC9aqIWQ88N-6" value="" style="endArrow=none;html=1;rounded=0;strokeWidth=1.9685;" parent="7GCYxpNkzpC9aqIWQ88N-4" edge="1">
          <mxGeometry width="50" height="50" relative="1" as="geometry">
            <mxPoint y="10" as="sourcePoint" />
            <mxPoint x="16" y="10" as="targetPoint" />
          </mxGeometry>
        </mxCell>
        <mxCell id="7GCYxpNkzpC9aqIWQ88N-7" value="" style="endArrow=none;html=1;rounded=0;strokeWidth=1.9685;" parent="7GCYxpNkzpC9aqIWQ88N-4" edge="1">
          <mxGeometry width="50" height="50" relative="1" as="geometry">
            <mxPoint x="24" y="10" as="sourcePoint" />
            <mxPoint x="40" y="10" as="targetPoint" />
          </mxGeometry>
        </mxCell>
        <mxCell id="7GCYxpNkzpC9aqIWQ88N-8" value="" style="endArrow=none;html=1;rounded=0;strokeWidth=1.9685;" parent="7GCYxpNkzpC9aqIWQ88N-4" edge="1">
          <mxGeometry width="50" height="50" relative="1" as="geometry">
            <mxPoint x="48" y="10" as="sourcePoint" />
            <mxPoint x="64" y="10" as="targetPoint" />
          </mxGeometry>
        </mxCell>
        <mxCell id="7GCYxpNkzpC9aqIWQ88N-54" value="$$-$$" style="text;html=1;align=center;verticalAlign=middle;whiteSpace=wrap;rounded=0;fontSize=20;" parent="7GCYxpNkzpC9aqIWQ88N-1" vertex="1">
          <mxGeometry x="-20" y="110" width="60" height="30" as="geometry" />
        </mxCell>
        <mxCell id="7GCYxpNkzpC9aqIWQ88N-10" value="" style="verticalLabelPosition=bottom;shadow=0;dashed=0;align=center;html=1;verticalAlign=top;shape=mxgraph.electrical.rot_mech.verticalLabelPosition=bottom;shadow=0;dashed=0;align=center;fillColor=strokeColor;html=1;verticalAlign=top;strokeWidth=1;shape=mxgraph.electrical.rot_mech.rotation;rotation=115;" parent="1" vertex="1">
          <mxGeometry x="1020" y="528" width="69" height="54" as="geometry" />
        </mxCell>
        <mxCell id="7GCYxpNkzpC9aqIWQ88N-29" style="edgeStyle=orthogonalEdgeStyle;rounded=0;orthogonalLoop=1;jettySize=auto;html=1;exitX=1;exitY=0.5;exitDx=0;exitDy=0;exitPerimeter=0;strokeWidth=1.9685;" parent="1" source="7GCYxpNkzpC9aqIWQ88N-14" edge="1">
          <mxGeometry relative="1" as="geometry">
            <mxPoint x="300" y="240" as="targetPoint" />
            <Array as="points">
              <mxPoint x="130" y="320" />
              <mxPoint x="301" y="320" />
              <mxPoint x="301" y="240" />
            </Array>
          </mxGeometry>
        </mxCell>
        <mxCell id="7GCYxpNkzpC9aqIWQ88N-14" value="" style="verticalLabelPosition=bottom;shadow=0;dashed=0;align=center;fillColor=strokeColor;html=1;verticalAlign=top;strokeWidth=1.9685;shape=mxgraph.electrical.miscellaneous.monocell_battery;direction=north;" parent="1" vertex="1">
          <mxGeometry x="90" y="449" width="80" height="95" as="geometry" />
        </mxCell>
        <mxCell id="7GCYxpNkzpC9aqIWQ88N-37" style="edgeStyle=orthogonalEdgeStyle;rounded=0;orthogonalLoop=1;jettySize=auto;html=1;exitX=1;exitY=0.61;exitDx=0;exitDy=0;entryX=1;entryY=0.5;entryDx=0;entryDy=0;endArrow=none;startFill=0;strokeWidth=1.9685;" parent="1" source="7GCYxpNkzpC9aqIWQ88N-16" target="7GCYxpNkzpC9aqIWQ88N-2" edge="1">
          <mxGeometry relative="1" as="geometry">
            <Array as="points">
              <mxPoint x="640" y="510" />
              <mxPoint x="640" y="680" />
              <mxPoint x="921" y="680" />
            </Array>
          </mxGeometry>
        </mxCell>
        <mxCell id="7GCYxpNkzpC9aqIWQ88N-43" style="edgeStyle=orthogonalEdgeStyle;rounded=0;orthogonalLoop=1;jettySize=auto;html=1;exitX=1;exitY=0.39;exitDx=0;exitDy=0;endArrow=oval;endFill=1;strokeColor=#FF0000;strokeWidth=1.9685;" parent="1" source="7GCYxpNkzpC9aqIWQ88N-16" edge="1">
          <mxGeometry relative="1" as="geometry">
            <mxPoint x="640" y="510" as="targetPoint" />
            <Array as="points">
              <mxPoint x="640" y="483" />
            </Array>
          </mxGeometry>
        </mxCell>
        <mxCell id="7GCYxpNkzpC9aqIWQ88N-48" style="edgeStyle=orthogonalEdgeStyle;rounded=0;orthogonalLoop=1;jettySize=auto;html=1;exitX=1;exitY=0.05;exitDx=0;exitDy=0;entryX=0;entryY=0.5;entryDx=0;entryDy=0;endArrow=none;startFill=0;strokeWidth=1.9685;" parent="1" source="7GCYxpNkzpC9aqIWQ88N-16" target="7GCYxpNkzpC9aqIWQ88N-2" edge="1">
          <mxGeometry relative="1" as="geometry">
            <Array as="points">
              <mxPoint x="640" y="442" />
              <mxPoint x="640" y="320" />
              <mxPoint x="921" y="320" />
            </Array>
          </mxGeometry>
        </mxCell>
        <mxCell id="7GCYxpNkzpC9aqIWQ88N-16" value="" style="pointerEvents=1;verticalLabelPosition=bottom;shadow=0;dashed=0;align=center;html=1;verticalAlign=top;shape=mxgraph.electrical.electro-mechanical.dpdt3;elSwitchState=1;strokeWidth=1.9685;" parent="1" vertex="1">
          <mxGeometry x="464" y="436" width="120" height="121" as="geometry" />
        </mxCell>
        <mxCell id="7GCYxpNkzpC9aqIWQ88N-33" style="edgeStyle=orthogonalEdgeStyle;rounded=0;orthogonalLoop=1;jettySize=auto;html=1;exitX=1;exitY=0.5;exitDx=0;exitDy=0;exitPerimeter=0;entryX=0;entryY=0.23;entryDx=0;entryDy=0;endArrow=none;startFill=0;strokeWidth=1.9685;" parent="1" source="7GCYxpNkzpC9aqIWQ88N-25" target="7GCYxpNkzpC9aqIWQ88N-16" edge="1">
          <mxGeometry relative="1" as="geometry">
            <Array as="points">
              <mxPoint x="440" y="240" />
              <mxPoint x="440" y="464" />
            </Array>
          </mxGeometry>
        </mxCell>
        <mxCell id="7GCYxpNkzpC9aqIWQ88N-25" value="" style="pointerEvents=1;verticalLabelPosition=bottom;shadow=0;dashed=0;align=center;html=1;verticalAlign=top;shape=mxgraph.electrical.resistors.resistor_2;strokeWidth=1.9685;" parent="1" vertex="1">
          <mxGeometry x="204" y="225" width="110" height="30" as="geometry" />
        </mxCell>
        <mxCell id="7GCYxpNkzpC9aqIWQ88N-30" style="edgeStyle=orthogonalEdgeStyle;rounded=0;orthogonalLoop=1;jettySize=auto;html=1;exitX=0;exitY=0.645;exitDx=0;exitDy=0;exitPerimeter=0;endArrow=oval;endFill=1;strokeWidth=1.9685;startArrow=oval;startFill=1;" parent="1" source="7GCYxpNkzpC9aqIWQ88N-26" edge="1">
          <mxGeometry relative="1" as="geometry">
            <mxPoint x="239.28571428571422" y="320" as="targetPoint" />
          </mxGeometry>
        </mxCell>
        <mxCell id="7GCYxpNkzpC9aqIWQ88N-26" value="" style="pointerEvents=1;verticalLabelPosition=bottom;shadow=0;dashed=0;align=center;html=1;verticalAlign=top;shape=mxgraph.electrical.inductors.inductor_5;strokeWidth=1.9685;direction=south;" parent="1" vertex="1">
          <mxGeometry x="229" y="360" width="30" height="120" as="geometry" />
        </mxCell>
        <mxCell id="7GCYxpNkzpC9aqIWQ88N-32" style="edgeStyle=orthogonalEdgeStyle;rounded=0;orthogonalLoop=1;jettySize=auto;html=1;exitX=0;exitY=0.5;exitDx=0;exitDy=0;exitPerimeter=0;endArrow=oval;endFill=1;strokeWidth=1.9685;" parent="1" source="7GCYxpNkzpC9aqIWQ88N-27" edge="1">
          <mxGeometry relative="1" as="geometry">
            <mxPoint x="240.23809523809518" y="680" as="targetPoint" />
          </mxGeometry>
        </mxCell>
        <mxCell id="7GCYxpNkzpC9aqIWQ88N-27" value="" style="pointerEvents=1;verticalLabelPosition=bottom;shadow=0;dashed=0;align=center;html=1;verticalAlign=top;shape=mxgraph.electrical.resistors.variable_resistor_2;direction=south;rotation=-180;flipH=1;strokeWidth=1.9685;" parent="1" vertex="1">
          <mxGeometry x="205" y="520" width="70" height="100" as="geometry" />
        </mxCell>
        <mxCell id="7GCYxpNkzpC9aqIWQ88N-28" style="edgeStyle=orthogonalEdgeStyle;rounded=0;orthogonalLoop=1;jettySize=auto;html=1;exitX=1;exitY=0.5;exitDx=0;exitDy=0;exitPerimeter=0;entryX=1;entryY=0.645;entryDx=0;entryDy=0;entryPerimeter=0;strokeWidth=1.9685;endArrow=oval;startFill=0;endFill=1;" parent="1" source="7GCYxpNkzpC9aqIWQ88N-27" target="7GCYxpNkzpC9aqIWQ88N-26" edge="1">
          <mxGeometry relative="1" as="geometry" />
        </mxCell>
        <mxCell id="7GCYxpNkzpC9aqIWQ88N-31" style="edgeStyle=orthogonalEdgeStyle;rounded=0;orthogonalLoop=1;jettySize=auto;html=1;exitX=0;exitY=0.79;exitDx=0;exitDy=0;entryX=0;entryY=0.5;entryDx=0;entryDy=0;entryPerimeter=0;endArrow=none;startFill=0;strokeWidth=1.9685;" parent="1" source="7GCYxpNkzpC9aqIWQ88N-16" target="7GCYxpNkzpC9aqIWQ88N-14" edge="1">
          <mxGeometry relative="1" as="geometry">
            <Array as="points">
              <mxPoint x="440" y="532" />
              <mxPoint x="440" y="680" />
              <mxPoint x="130" y="680" />
            </Array>
          </mxGeometry>
        </mxCell>
        <mxCell id="7GCYxpNkzpC9aqIWQ88N-42" style="edgeStyle=orthogonalEdgeStyle;rounded=0;orthogonalLoop=1;jettySize=auto;html=1;exitX=0;exitY=0.5;exitDx=0;exitDy=0;exitPerimeter=0;endArrow=oval;endFill=1;strokeWidth=1.9685;strokeColor=#FF0000;" parent="1" source="7GCYxpNkzpC9aqIWQ88N-40" edge="1">
          <mxGeometry relative="1" as="geometry">
            <mxPoint x="720.3333333333335" y="320" as="targetPoint" />
          </mxGeometry>
        </mxCell>
        <mxCell id="7GCYxpNkzpC9aqIWQ88N-40" value="" style="pointerEvents=1;verticalLabelPosition=bottom;shadow=0;dashed=0;align=center;html=1;verticalAlign=top;shape=mxgraph.electrical.resistors.resistor_2;strokeWidth=1.9685;direction=south;fillStyle=solid;strokeColor=#FF0000;" parent="1" vertex="1">
          <mxGeometry x="705" y="400" width="30" height="110" as="geometry" />
        </mxCell>
        <mxCell id="7GCYxpNkzpC9aqIWQ88N-41" style="edgeStyle=orthogonalEdgeStyle;rounded=0;orthogonalLoop=1;jettySize=auto;html=1;exitX=1;exitY=0.95;exitDx=0;exitDy=0;entryX=1;entryY=0.5;entryDx=0;entryDy=0;entryPerimeter=0;endArrow=none;startFill=0;strokeWidth=1.9685;strokeColor=#FF0000;" parent="1" source="7GCYxpNkzpC9aqIWQ88N-16" target="7GCYxpNkzpC9aqIWQ88N-40" edge="1">
          <mxGeometry relative="1" as="geometry" />
        </mxCell>
        <mxCell id="7GCYxpNkzpC9aqIWQ88N-44" value="&lt;div style=&quot;line-height: 30%;&quot;&gt;&lt;p&gt;&lt;font style=&quot;line-height: 340%; font-size: 16px;&quot; face=&quot;Helvetica&quot;&gt;&lt;br&gt;&lt;/font&gt;&lt;/p&gt;&lt;p&gt;&lt;font style=&quot;line-height: 340%; font-size: 16px;&quot; face=&quot;Helvetica&quot;&gt;&lt;br&gt;&lt;/font&gt;&lt;/p&gt;&lt;p&gt;&lt;br&gt;&lt;/p&gt;&lt;p&gt;&lt;br&gt;&lt;/p&gt;&lt;p&gt;&lt;br&gt;&lt;/p&gt;&lt;p style=&quot;&quot;&gt;&lt;font style=&quot;font-size: 16px; line-height: 30%;&quot; face=&quot;Helvetica&quot;&gt;DPDT&lt;/font&gt;&lt;/p&gt;&lt;/div&gt;" style="rounded=0;whiteSpace=wrap;html=1;fillColor=none;dashed=1;align=center;" parent="1" vertex="1">
          <mxGeometry x="480" y="400" width="90" height="230" as="geometry" />
        </mxCell>
        <mxCell id="7GCYxpNkzpC9aqIWQ88N-49" value="$$R_{arr}$$" style="text;html=1;align=center;verticalAlign=middle;whiteSpace=wrap;rounded=0;fontSize=20;" parent="1" vertex="1">
          <mxGeometry x="220" y="190" width="60" height="30" as="geometry" />
        </mxCell>
        <mxCell id="7GCYxpNkzpC9aqIWQ88N-50" value="$$R_{trav}$$" style="text;html=1;align=center;verticalAlign=middle;whiteSpace=wrap;rounded=0;fontSize=20;fontColor=#FF0000;" parent="1" vertex="1">
          <mxGeometry x="735" y="440" width="60" height="30" as="geometry" />
        </mxCell>
        <mxCell id="7GCYxpNkzpC9aqIWQ88N-51" value="$$R_{c}$$" style="text;html=1;align=center;verticalAlign=middle;whiteSpace=wrap;rounded=0;fontSize=20;" parent="1" vertex="1">
          <mxGeometry x="259" y="564" width="60" height="30" as="geometry" />
        </mxCell>
        <mxCell id="7GCYxpNkzpC9aqIWQ88N-53" value="$$+$$" style="text;html=1;align=center;verticalAlign=middle;whiteSpace=wrap;rounded=0;fontSize=20;" parent="1" vertex="1">
          <mxGeometry x="830" y="430" width="60" height="30" as="geometry" />
        </mxCell>
        <mxCell id="7GCYxpNkzpC9aqIWQ88N-57" value="" style="endArrow=classic;html=1;rounded=0;entryX=0.25;entryY=0;entryDx=0;entryDy=0;exitX=0.25;exitY=1;exitDx=0;exitDy=0;curved=1;" parent="1" source="7GCYxpNkzpC9aqIWQ88N-53" target="7GCYxpNkzpC9aqIWQ88N-54" edge="1">
          <mxGeometry width="50" height="50" relative="1" as="geometry">
            <mxPoint x="490" y="450" as="sourcePoint" />
            <mxPoint x="540" y="400" as="targetPoint" />
            <Array as="points">
              <mxPoint x="830" y="500" />
            </Array>
          </mxGeometry>
        </mxCell>
        <mxCell id="7GCYxpNkzpC9aqIWQ88N-58" value="$$E&#39;$$" style="text;html=1;align=center;verticalAlign=middle;whiteSpace=wrap;rounded=0;fontSize=20;" parent="1" vertex="1">
          <mxGeometry x="791" y="490" width="60" height="30" as="geometry" />
        </mxCell>
        <mxCell id="7GCYxpNkzpC9aqIWQ88N-59" value="$$U$$" style="text;html=1;align=center;verticalAlign=middle;whiteSpace=wrap;rounded=0;fontSize=20;" parent="1" vertex="1">
          <mxGeometry x="50" y="498" width="60" height="30" as="geometry" />
        </mxCell>
        <mxCell id="7GCYxpNkzpC9aqIWQ88N-60" value="$$\mathrm{C}$$" style="text;html=1;align=center;verticalAlign=middle;whiteSpace=wrap;rounded=0;fontSize=20;" parent="1" vertex="1">
          <mxGeometry x="235" y="345" width="60" height="30" as="geometry" />
        </mxCell>
        <mxCell id="7GCYxpNkzpC9aqIWQ88N-61" value="$$\mathrm{D}$$" style="text;html=1;align=center;verticalAlign=middle;whiteSpace=wrap;rounded=0;fontSize=20;" parent="1" vertex="1">
          <mxGeometry x="236" y="464" width="60" height="30" as="geometry" />
        </mxCell>
        <mxCell id="7GCYxpNkzpC9aqIWQ88N-62" value="$$\omega$$" style="text;html=1;align=center;verticalAlign=middle;whiteSpace=wrap;rounded=0;fontSize=20;" parent="1" vertex="1">
          <mxGeometry x="991" y="576" width="60" height="30" as="geometry" />
        </mxCell>
        <mxCell id="7GCYxpNkzpC9aqIWQ88N-63" value="$$1$$" style="text;html=1;align=center;verticalAlign=middle;whiteSpace=wrap;rounded=0;fontSize=20;" parent="1" vertex="1">
          <mxGeometry x="524" y="410" width="60" height="30" as="geometry" />
        </mxCell>
        <mxCell id="7GCYxpNkzpC9aqIWQ88N-64" value="$$2$$" style="text;html=1;align=center;verticalAlign=middle;whiteSpace=wrap;rounded=0;fontSize=20;fontColor=#FF0000;" parent="1" vertex="1">
          <mxGeometry x="524" y="557" width="60" height="30" as="geometry" />
        </mxCell>
      </root>
    </mxGraphModel>
  </diagram>
</mxfile>
